# xmcd
#
# Track frame offsets:
#  150
#  15027
#  31972
#  53167
#  71236
#  87371
#  100734
#  112974
#  130401
#  151521
#  170184
#  187614
#  209984
#
# Disc length: 3097 seconds
#
# Revision: 0
# Processed by: cddbd v1.5.1PL0 Copyright (c) Steve Scherf et al.
# Submitted via: Collectorz.com_Music_Collector 6.9
#
DISCID=a50c170d
DTITLE=Sweet Baby James (aka James Meston) - Rob Eyers - Rhythm 'N' Blues
DYEAR=2005
DGENRE=Blues
TTITLE0=Can't Be Satisfied
TTITLE1=Pallet On Your Floor
TTITLE2=Come On In
TTITLE3=You Gotta Move
TTITLE4=Angel Wings
TTITLE5=Coming Home
TTITLE6=Free The Dancing Bear
TTITLE7=Tiger Man
TTITLE8=Boogie Chillun'
TTITLE9=Still A Fool
TTITLE10=Only Time (Felt So Good)
TTITLE11=Nobody's Fault But Mine
TTITLE12=What About You?
EXTD=
EXTT0=
EXTT1=
EXTT2=
EXTT3=
EXTT4=
EXTT5=
EXTT6=
EXTT7=
EXTT8=
EXTT9=
EXTT10=
EXTT11=
EXTT12=
PLAYORDER=
